{"title":"Shirin Farhad Ki Toh Nikal Padi (2012).720p.DVDRip.6Ch.By K@rtik","uid":7687739,"size":958294773,"categoryP":"video","categoryS":"hd___movies","magnet":"?xt=urn:btih:fa402bffc84d8e9ca41fd4925f42a85fbfe2e4fd&amp;dn=Shirin+Farhad+Ki+Toh+Nikal+Padi+%282012%29.720p.DVDRip.6Ch.By+K%40rtik&amp;tr=udp%3A%2F%2Ftracker.openbittorrent.com%3A80&amp;tr=udp%3A%2F%2Fopen.demonii.com%3A1337&amp;tr=udp%3A%2F%2Ftracker.coppersurfer.tk%3A6969&amp;tr=udp%3A%2F%2Fexodus.desync.com%3A6969","seeders":2,"leechers":1,"uploader":"TeamExD","files":4,"time":1348966419,"description":"Format                                   : Matroska\nFormat version                           : Version 2\nFile size                                : 897 MiB\nDuration                                 : 1h 51mn\nOverall bit rate                         : 1 122 Kbps\nMovie name                               : Shirin Farhad Ki Toh Nikal Padi (2012).720p.DVDRip.6Ch.By K@rtik [EXD ExclusivE]\n\nCodec ID                                 : V_MPEG4/ISO/AVC\nDuration                                 : 1h 51mn\nBit rate                                 : 897 Kbps\nWidth                                    : 1 280 pixels\nHeight                                   : 544 pixels\nDisplay aspect ratio                     : 2.35:1\nFrame rate                               : 23.976 fps\nColor space                              : YUV\nChroma subsampling                       : 4:2:0\nBit depth                                : 8 bits\nScan type                                : Progressive\nBits/(Pixel*Frame)                       : 0.054\nStream size                              : 700 MiB (78%)\nTitle                                    : K@rtik\n\nCodec ID                                 : A_AC3\nDuration                                 : 1h 51mn\nBit rate mode                            : Constant\nBit rate                                 : 224 Kbps\nChannel(s)                               : 6 channels\nChannel positions                        : Front: L C R, Side: L R, LFE\nSampling rate                            : 48.0 KHz\nBit depth                                : 16 bits\nCompression mode                         : Lossy\nStream size                              : 179 MiB (20%)\nTitle                                    : K@rtik\nLanguage                                 : Hindi\n &lt;a href=&quot;\nhttp://imageshack.us/a/img822/4555/61095148.png&quot; rel=&quot;nofollow&quot; target=&quot;_NEW&quot;&gt;\nhttp://imageshack.us/a/img822/4555/61095148.png&lt;/a&gt; &lt;a href=&quot;\nhttp://imageshack.us/a/img526/996/45283546.png&quot; rel=&quot;nofollow&quot; target=&quot;_NEW&quot;&gt;\nhttp://imageshack.us/a/img526/996/45283546.png&lt;/a&gt; &lt;a href=&quot;\nhttp://imageshack.us/a/img94/3497/65744628.png&quot; rel=&quot;nofollow&quot; target=&quot;_NEW&quot;&gt;\nhttp://imageshack.us/a/img94/3497/65744628.png&lt;/a&gt; &lt;a href=&quot;\nhttp://imageshack.us/a/img28/3314/40264978.png&quot; rel=&quot;nofollow&quot; target=&quot;_NEW&quot;&gt;\nhttp://imageshack.us/a/img28/3314/40264978.png&lt;/a&gt; &lt;a href=&quot;\nhttp://imageshack.us/a/img684/7364/53193148.png&quot; rel=&quot;nofollow&quot; target=&quot;_NEW&quot;&gt;\nhttp://imageshack.us/a/img684/7364/53193148.png&lt;/a&gt; &lt;a href=&quot;\nhttp://imageshack.us/a/img821/1470/73220648.png&quot; rel=&quot;nofollow&quot; target=&quot;_NEW&quot;&gt;\nhttp://imageshack.us/a/img821/1470/73220648.png&lt;/a&gt; &lt;a href=&quot;\nhttp://imageshack.us/a/img405/8915/63429266.png&quot; rel=&quot;nofollow&quot; target=&quot;_NEW&quot;&gt;\nhttp://imageshack.us/a/img405/8915/63429266.png&lt;/a&gt; &lt;a href=&quot;\nhttp://imageshack.us/a/img707/4498/48737607.png&quot; rel=&quot;nofollow&quot; target=&quot;_NEW&quot;&gt;\nhttp://imageshack.us/a/img707/4498/48737607.png&lt;/a&gt; &lt;a href=&quot;\nhttp://imageshack.us/a/img18/1994/89426493.png&quot; rel=&quot;nofollow&quot; target=&quot;_NEW&quot;&gt;\nhttp://imageshack.us/a/img18/1994/89426493.png&lt;/a&gt;\n\n\n","torrent":{"xt":"urn:btih:fa402bffc84d8e9ca41fd4925f42a85fbfe2e4fd","amp;dn":"Shirin+Farhad+Ki+Toh+Nikal+Padi+%282012%29.720p.DVDRip.6Ch.By+K%40rtik","amp;tr":["udp%3A%2F%2Ftracker.openbittorrent.com%3A80","udp%3A%2F%2Fopen.demonii.com%3A1337","udp%3A%2F%2Ftracker.coppersurfer.tk%3A6969","udp%3A%2F%2Fexodus.desync.com%3A6969"],"infoHash":"fa402bffc84d8e9ca41fd4925f42a85fbfe2e4fd","infoHashBuffer":{"type":"Buffer","data":[250,64,43,255,200,77,142,156,164,31,212,146,95,66,168,95,191,226,228,253]},"announce":[],"urlList":[]}}